<?xml version="1.0" encoding="UTF-8"?>
<!DOCTYPE svg PUBLIC "-//W3C//DTD SVG 1.1//EN" "http://www.w3.org/Graphics/SVG/1.1/DTD/svg11.dtd">
<!-- Creator: CorelDRAW -->
<svg xmlns="http://www.w3.org/2000/svg" xml:space="preserve" width="11in" height="8.5in" version="1.1" style="shape-rendering:geometricPrecision; text-rendering:geometricPrecision; image-rendering:optimizeQuality; fill-rule:evenodd; clip-rule:evenodd"
viewBox="0 0 11000 8500"
 xmlns:xlink="http://www.w3.org/1999/xlink"
 xmlns:xodm="http://www.corel.com/coreldraw/odm/2003">
 <defs>
  <style type="text/css">
   <![CDATA[
    .str0 {stroke:#2B2A29;stroke-width:6.94;stroke-miterlimit:2.61313}
    .fil1 {fill:#898989}
    .fil0 {fill:#727271}
   ]]>
  </style>
 </defs>
 <g id="Layer_x0020_1">
  <metadata id="CorelCorpID_0Corel-Layer"/>
  <g id="_1232551885440">
   <path class="fil0 str0" d="M7796.75 1291.64c3963.99,671.63 5149.7,6194.02 -2033.58,5354.47 -1826.79,-213.5 -1624.15,-662.65 -3125,-1585.81 -885.54,-544.7 -2357.19,-1909.05 -2524.34,-2875.38 -202.3,-1169.56 4.04,-1862.14 1490.15,-1846.5 1445.7,15.21 5446.72,826.82 6192.77,953.22z"/>
   <path class="fil0 str0" d="M8046.75 1041.64c3963.99,671.63 5149.7,6194.02 -2033.58,5354.47 -1826.79,-213.5 -1624.15,-662.65 -3125,-1585.81 -885.54,-544.7 -2357.19,-1909.05 -2524.34,-2875.38 -202.3,-1169.56 4.04,-1862.14 1490.15,-1846.5 1445.7,15.21 5446.72,826.82 6192.77,953.22z"/>
   <path class="fil0 str0" d="M8296.75 791.64c3963.99,671.63 5149.7,6194.02 -2033.58,5354.47 -1826.79,-213.5 -1624.15,-662.65 -3125,-1585.81 -885.54,-544.7 -2357.19,-1909.05 -2524.34,-2875.38 -202.3,-1169.56 4.04,-1862.14 1490.15,-1846.5 1445.7,15.21 5446.72,826.82 6192.77,953.22z"/>
   <path class="fil1 str0" d="M8712.74 4011.02c2468.85,2319.75 782.33,6623.44 -3863.62,2675.85 -1181.52,-1003.92 -834.99,-1213.3 -1464.94,-2545.33 -371.69,-785.94 -780.15,-2403.52 -456.8,-3137.62 391.36,-888.5 851.41,-1261.28 1884.61,-551.8 1005.1,690.19 3436.09,3122.3 3900.75,3558.89z"/>
   <path class="fil1 str0" d="M8962.74 3761.02c2468.85,2319.75 782.33,6623.44 -3863.62,2675.85 -1181.52,-1003.92 -834.99,-1213.3 -1464.94,-2545.33 -371.69,-785.94 -780.15,-2403.52 -456.8,-3137.62 391.36,-888.5 851.41,-1261.28 1884.61,-551.8 1005.1,690.19 3436.09,3122.3 3900.75,3558.89z"/>
   <path class="fil1 str0" d="M9212.74 3511.02c2468.85,2319.75 782.33,6623.44 -3863.62,2675.85 -1181.52,-1003.92 -834.99,-1213.3 -1464.94,-2545.33 -371.69,-785.94 -780.15,-2403.52 -456.8,-3137.62 391.36,-888.5 851.41,-1261.28 1884.61,-551.8 1005.1,690.19 3436.09,3122.3 3900.75,3558.89z"/>
  </g>
 </g>
</svg>
