<?xml version="1.0" encoding="UTF-8"?>
<!DOCTYPE svg PUBLIC "-//W3C//DTD SVG 1.1//EN" "http://www.w3.org/Graphics/SVG/1.1/DTD/svg11.dtd">
<!-- Creator: CorelDRAW -->
<svg xmlns="http://www.w3.org/2000/svg" xml:space="preserve" width="11in" height="8.5in" version="1.1" style="shape-rendering:geometricPrecision; text-rendering:geometricPrecision; image-rendering:optimizeQuality; fill-rule:evenodd; clip-rule:evenodd"
viewBox="0 0 11000 8500"
 xmlns:xlink="http://www.w3.org/1999/xlink"
 xmlns:xodm="http://www.corel.com/coreldraw/odm/2003">
 <defs>
  <style type="text/css">
   <![CDATA[
    .str0 {stroke:#FEFEFE;stroke-width:6.94;stroke-miterlimit:2.61313}
    .fil1 {fill:#EBECEC}
    .fil0 {fill:#D9DADA}
   ]]>
  </style>
 </defs>
 <g id="Layer_x0020_1">
  <metadata id="CorelCorpID_0Corel-Layer"/>
  <g id="_1233942025040">
   <path class="fil0 str0" d="M7439.28 1723.15c3280.9,742.95 4876.63,4691.3 -606.99,4654.43 -3807.21,-25.6 -3277.29,2753.04 -6163.05,1479.76 -626.61,-276.48 -128.1,-3063.87 -514.65,-5287.2 -199.88,-1149.67 304.56,-1624.11 1412.91,-1750.8 1361.97,-155.68 5172.05,745.37 5871.78,903.82z"/>
   <path class="fil0 str0" d="M7676.32 1486.11c3280.9,742.95 4876.62,4691.3 -607,4654.43 -3807.21,-25.6 -3277.28,2753.04 -6163.05,1479.75 -626.61,-276.48 -128.1,-3063.87 -514.65,-5287.2 -199.88,-1149.67 304.56,-1624.11 1412.91,-1750.8 1361.97,-155.68 5172.05,745.37 5871.78,903.81z"/>
   <path class="fil1 str0" d="M7913.37 1249.06c3280.9,742.95 4876.62,4691.3 -607,4654.43 -3807.21,-25.6 -3277.29,2753.04 -6163.05,1479.76 -626.62,-276.48 -128.11,-3063.87 -514.65,-5287.2 -199.88,-1149.67 304.56,-1624.11 1412.91,-1750.8 1361.97,-155.68 5172.05,745.37 5871.78,903.81z"/>
  </g>
 </g>
</svg>
